<mxfile host="app.diagrams.net" modified="2023-10-01T13:02:40.053Z" agent="Mozilla/5.0 (Windows NT 10.0; Win64; x64) AppleWebKit/537.36 (KHTML, like Gecko) Chrome/117.0.0.0 Safari/537.36" etag="YIP08R0859KZppO6oh5v" version="22.0.0" type="google">
  <diagram name="Page-1" id="e7e014a7-5840-1c2e-5031-d8a46d1fe8dd">
    <mxGraphModel grid="1" page="1" gridSize="10" guides="1" tooltips="1" connect="1" arrows="1" fold="1" pageScale="1" pageWidth="1169" pageHeight="826" background="none" math="0" shadow="0">
      <root>
        <mxCell id="0" />
        <mxCell id="1" parent="0" />
        <mxCell id="06AF0Y3Tv4udJ_ulRc9i-10" value="" style="rounded=1;whiteSpace=wrap;html=1;" vertex="1" parent="1">
          <mxGeometry x="970" y="398" width="120" height="60" as="geometry" />
        </mxCell>
        <mxCell id="06AF0Y3Tv4udJ_ulRc9i-9" value="" style="rounded=1;whiteSpace=wrap;html=1;" vertex="1" parent="1">
          <mxGeometry x="810" y="398" width="120" height="60" as="geometry" />
        </mxCell>
        <mxCell id="06AF0Y3Tv4udJ_ulRc9i-8" value="" style="rounded=1;whiteSpace=wrap;html=1;" vertex="1" parent="1">
          <mxGeometry x="660" y="398" width="120" height="60" as="geometry" />
        </mxCell>
        <mxCell id="06AF0Y3Tv4udJ_ulRc9i-7" value="" style="rounded=1;whiteSpace=wrap;html=1;" vertex="1" parent="1">
          <mxGeometry x="500" y="398" width="120" height="60" as="geometry" />
        </mxCell>
        <mxCell id="hGRElOPr_GHi1aqOCzCx-59" value="&lt;font style=&quot;font-size: 14px;&quot;&gt;Enter Email&lt;/font&gt;" style="text;html=1;align=center;verticalAlign=middle;resizable=0;points=[];autosize=1;strokeColor=none;fillColor=none;" vertex="1" parent="1">
          <mxGeometry x="510" y="413" width="100" height="30" as="geometry" />
        </mxCell>
        <mxCell id="hGRElOPr_GHi1aqOCzCx-60" value="&lt;font style=&quot;font-size: 14px;&quot;&gt;Enter Password&lt;/font&gt;" style="text;html=1;align=center;verticalAlign=middle;resizable=0;points=[];autosize=1;strokeColor=none;fillColor=none;" vertex="1" parent="1">
          <mxGeometry x="660" y="415" width="120" height="30" as="geometry" />
        </mxCell>
        <mxCell id="hGRElOPr_GHi1aqOCzCx-61" value="&lt;font style=&quot;font-size: 14px;&quot;&gt;Enter PhoneNo.&lt;/font&gt;" style="text;html=1;align=center;verticalAlign=middle;resizable=0;points=[];autosize=1;strokeColor=none;fillColor=none;" vertex="1" parent="1">
          <mxGeometry x="810" y="413" width="120" height="30" as="geometry" />
        </mxCell>
        <mxCell id="hGRElOPr_GHi1aqOCzCx-63" value="&lt;font style=&quot;font-size: 14px;&quot;&gt;Enter Preference&lt;/font&gt;" style="text;html=1;align=center;verticalAlign=middle;resizable=0;points=[];autosize=1;strokeColor=none;fillColor=none;" vertex="1" parent="1">
          <mxGeometry x="965" y="415" width="130" height="30" as="geometry" />
        </mxCell>
        <mxCell id="06AF0Y3Tv4udJ_ulRc9i-5" value="" style="rounded=1;whiteSpace=wrap;html=1;" vertex="1" parent="1">
          <mxGeometry x="330" y="398" width="120" height="60" as="geometry" />
        </mxCell>
        <mxCell id="06AF0Y3Tv4udJ_ulRc9i-11" value="" style="rounded=1;whiteSpace=wrap;html=1;" vertex="1" parent="1">
          <mxGeometry x="540" y="970" width="120" height="60" as="geometry" />
        </mxCell>
        <mxCell id="06AF0Y3Tv4udJ_ulRc9i-4" value="" style="rounded=1;whiteSpace=wrap;html=1;" vertex="1" parent="1">
          <mxGeometry x="640" y="135" width="120" height="60" as="geometry" />
        </mxCell>
        <mxCell id="hGRElOPr_GHi1aqOCzCx-46" value="&lt;font style=&quot;font-size: 14px;&quot;&gt;Enter Details&lt;/font&gt;" style="text;html=1;align=center;verticalAlign=middle;resizable=0;points=[];autosize=1;strokeColor=none;fillColor=none;" vertex="1" parent="1">
          <mxGeometry x="650" y="150" width="100" height="30" as="geometry" />
        </mxCell>
        <mxCell id="hGRElOPr_GHi1aqOCzCx-47" value="" style="endArrow=classic;html=1;rounded=0;exitX=1;exitY=0.5;exitDx=0;exitDy=0;entryX=0;entryY=0.5;entryDx=0;entryDy=0;" edge="1" parent="1" source="06AF0Y3Tv4udJ_ulRc9i-1">
          <mxGeometry width="50" height="50" relative="1" as="geometry">
            <mxPoint x="290" y="170" as="sourcePoint" />
            <mxPoint x="640" y="165" as="targetPoint" />
          </mxGeometry>
        </mxCell>
        <mxCell id="hGRElOPr_GHi1aqOCzCx-51" value="" style="html=1;points=[];perimeter=orthogonalPerimeter;fillColor=strokeColor;direction=south;" vertex="1" parent="1">
          <mxGeometry x="340" y="290" width="750" height="7.5" as="geometry" />
        </mxCell>
        <mxCell id="hGRElOPr_GHi1aqOCzCx-52" value="" style="endArrow=classic;html=1;rounded=0;exitX=0.5;exitY=1;exitDx=0;exitDy=0;" edge="1" parent="1" source="06AF0Y3Tv4udJ_ulRc9i-4">
          <mxGeometry width="50" height="50" relative="1" as="geometry">
            <mxPoint x="700" y="205" as="sourcePoint" />
            <mxPoint x="700" y="294" as="targetPoint" />
          </mxGeometry>
        </mxCell>
        <mxCell id="hGRElOPr_GHi1aqOCzCx-58" value="&lt;font style=&quot;font-size: 14px;&quot;&gt;Enter Name&lt;/font&gt;" style="text;html=1;align=center;verticalAlign=middle;resizable=0;points=[];autosize=1;strokeColor=none;fillColor=none;" vertex="1" parent="1">
          <mxGeometry x="340" y="415" width="100" height="30" as="geometry" />
        </mxCell>
        <mxCell id="hGRElOPr_GHi1aqOCzCx-66" value="" style="endArrow=classic;html=1;rounded=0;entryX=0.5;entryY=0;entryDx=0;entryDy=0;exitX=0;exitY=0.933;exitDx=0;exitDy=0;exitPerimeter=0;" edge="1" parent="1" source="hGRElOPr_GHi1aqOCzCx-51" target="06AF0Y3Tv4udJ_ulRc9i-5">
          <mxGeometry width="50" height="50" relative="1" as="geometry">
            <mxPoint x="390" y="300" as="sourcePoint" />
            <mxPoint x="390" y="390" as="targetPoint" />
          </mxGeometry>
        </mxCell>
        <mxCell id="hGRElOPr_GHi1aqOCzCx-67" value="" style="endArrow=classic;html=1;rounded=0;entryX=0.5;entryY=0;entryDx=0;entryDy=0;exitX=0;exitY=0.933;exitDx=0;exitDy=0;exitPerimeter=0;" edge="1" parent="1" target="06AF0Y3Tv4udJ_ulRc9i-9">
          <mxGeometry width="50" height="50" relative="1" as="geometry">
            <mxPoint x="870" y="290" as="sourcePoint" />
            <mxPoint x="870" y="390" as="targetPoint" />
          </mxGeometry>
        </mxCell>
        <mxCell id="hGRElOPr_GHi1aqOCzCx-68" value="" style="endArrow=classic;html=1;rounded=0;entryX=0.5;entryY=0;entryDx=0;entryDy=0;exitX=1;exitY=0.493;exitDx=0;exitDy=0;exitPerimeter=0;" edge="1" parent="1" source="hGRElOPr_GHi1aqOCzCx-51" target="06AF0Y3Tv4udJ_ulRc9i-8">
          <mxGeometry width="50" height="50" relative="1" as="geometry">
            <mxPoint x="714.4100000000001" y="297.5" as="sourcePoint" />
            <mxPoint x="720" y="390" as="targetPoint" />
          </mxGeometry>
        </mxCell>
        <mxCell id="hGRElOPr_GHi1aqOCzCx-69" value="" style="endArrow=classic;html=1;rounded=0;exitX=0;exitY=0.933;exitDx=0;exitDy=0;exitPerimeter=0;entryX=0.5;entryY=0;entryDx=0;entryDy=0;" edge="1" parent="1" target="06AF0Y3Tv4udJ_ulRc9i-7">
          <mxGeometry width="50" height="50" relative="1" as="geometry">
            <mxPoint x="559.41" y="297.5" as="sourcePoint" />
            <mxPoint x="560" y="390" as="targetPoint" />
          </mxGeometry>
        </mxCell>
        <mxCell id="hGRElOPr_GHi1aqOCzCx-70" value="" style="endArrow=classic;html=1;rounded=0;exitX=0.086;exitY=0.084;exitDx=0;exitDy=0;exitPerimeter=0;" edge="1" parent="1" source="hGRElOPr_GHi1aqOCzCx-51">
          <mxGeometry width="50" height="50" relative="1" as="geometry">
            <mxPoint x="1029" y="300" as="sourcePoint" />
            <mxPoint x="1030" y="398" as="targetPoint" />
          </mxGeometry>
        </mxCell>
        <mxCell id="hGRElOPr_GHi1aqOCzCx-71" value="" style="endArrow=classic;html=1;rounded=0;exitX=0.5;exitY=1;exitDx=0;exitDy=0;" edge="1" parent="1" source="06AF0Y3Tv4udJ_ulRc9i-5">
          <mxGeometry width="50" height="50" relative="1" as="geometry">
            <mxPoint x="389.17" y="468" as="sourcePoint" />
            <mxPoint x="390" y="560" as="targetPoint" />
          </mxGeometry>
        </mxCell>
        <mxCell id="hGRElOPr_GHi1aqOCzCx-82" value="" style="endArrow=classic;html=1;rounded=0;entryX=0.5;entryY=0;entryDx=0;entryDy=0;exitX=0.443;exitY=0.973;exitDx=0;exitDy=0;exitPerimeter=0;" edge="1" parent="1" source="06AF0Y3Tv4udJ_ulRc9i-8">
          <mxGeometry width="50" height="50" relative="1" as="geometry">
            <mxPoint x="715" y="468.5" as="sourcePoint" />
            <mxPoint x="715.0000000000002" y="560.5" as="targetPoint" />
          </mxGeometry>
        </mxCell>
        <mxCell id="hGRElOPr_GHi1aqOCzCx-83" value="" style="endArrow=classic;html=1;rounded=0;entryX=0.5;entryY=0;entryDx=0;entryDy=0;" edge="1" parent="1" target="hGRElOPr_GHi1aqOCzCx-92">
          <mxGeometry width="50" height="50" relative="1" as="geometry">
            <mxPoint x="560" y="460" as="sourcePoint" />
            <mxPoint x="555.0000000000002" y="560.5" as="targetPoint" />
          </mxGeometry>
        </mxCell>
        <mxCell id="hGRElOPr_GHi1aqOCzCx-89" value="" style="endArrow=classic;html=1;rounded=0;exitX=0.5;exitY=1;exitDx=0;exitDy=0;" edge="1" parent="1" source="06AF0Y3Tv4udJ_ulRc9i-9">
          <mxGeometry width="50" height="50" relative="1" as="geometry">
            <mxPoint x="870" y="470" as="sourcePoint" />
            <mxPoint x="870" y="560" as="targetPoint" />
          </mxGeometry>
        </mxCell>
        <mxCell id="hGRElOPr_GHi1aqOCzCx-90" value="" style="endArrow=classic;html=1;rounded=0;entryX=0.5;entryY=0;entryDx=0;entryDy=0;exitX=0.5;exitY=1;exitDx=0;exitDy=0;" edge="1" parent="1" source="06AF0Y3Tv4udJ_ulRc9i-10" target="hGRElOPr_GHi1aqOCzCx-95">
          <mxGeometry width="50" height="50" relative="1" as="geometry">
            <mxPoint x="1030" y="468" as="sourcePoint" />
            <mxPoint x="1030" y="550" as="targetPoint" />
          </mxGeometry>
        </mxCell>
        <mxCell id="hGRElOPr_GHi1aqOCzCx-91" value="" style="rounded=0;whiteSpace=wrap;html=1;" vertex="1" parent="1">
          <mxGeometry x="330" y="560" width="120" height="60" as="geometry" />
        </mxCell>
        <mxCell id="hGRElOPr_GHi1aqOCzCx-92" value="" style="rounded=0;whiteSpace=wrap;html=1;" vertex="1" parent="1">
          <mxGeometry x="500" y="560" width="120" height="60" as="geometry" />
        </mxCell>
        <mxCell id="hGRElOPr_GHi1aqOCzCx-93" value="" style="rounded=0;whiteSpace=wrap;html=1;" vertex="1" parent="1">
          <mxGeometry x="655" y="560" width="120" height="60" as="geometry" />
        </mxCell>
        <mxCell id="hGRElOPr_GHi1aqOCzCx-94" value="" style="rounded=0;whiteSpace=wrap;html=1;" vertex="1" parent="1">
          <mxGeometry x="810" y="560" width="120" height="60" as="geometry" />
        </mxCell>
        <mxCell id="hGRElOPr_GHi1aqOCzCx-95" value="" style="rounded=0;whiteSpace=wrap;html=1;" vertex="1" parent="1">
          <mxGeometry x="970" y="560" width="120" height="60" as="geometry" />
        </mxCell>
        <mxCell id="hGRElOPr_GHi1aqOCzCx-96" value="&lt;font style=&quot;font-size: 14px;&quot;&gt;Name&lt;/font&gt;" style="text;html=1;align=center;verticalAlign=middle;resizable=0;points=[];autosize=1;strokeColor=none;fillColor=none;" vertex="1" parent="1">
          <mxGeometry x="360" y="575" width="60" height="30" as="geometry" />
        </mxCell>
        <mxCell id="hGRElOPr_GHi1aqOCzCx-97" value="&lt;font style=&quot;font-size: 14px;&quot;&gt;Email&lt;/font&gt;" style="text;html=1;align=center;verticalAlign=middle;resizable=0;points=[];autosize=1;strokeColor=none;fillColor=none;" vertex="1" parent="1">
          <mxGeometry x="525" y="575" width="60" height="30" as="geometry" />
        </mxCell>
        <mxCell id="hGRElOPr_GHi1aqOCzCx-98" value="&lt;font style=&quot;font-size: 14px;&quot;&gt;Password&lt;/font&gt;" style="text;html=1;align=center;verticalAlign=middle;resizable=0;points=[];autosize=1;strokeColor=none;fillColor=none;" vertex="1" parent="1">
          <mxGeometry x="675" y="575" width="80" height="30" as="geometry" />
        </mxCell>
        <mxCell id="hGRElOPr_GHi1aqOCzCx-99" value="&lt;font style=&quot;font-size: 14px;&quot;&gt;PhoneNo.&lt;/font&gt;" style="text;html=1;align=center;verticalAlign=middle;resizable=0;points=[];autosize=1;strokeColor=none;fillColor=none;" vertex="1" parent="1">
          <mxGeometry x="825" y="575" width="90" height="30" as="geometry" />
        </mxCell>
        <mxCell id="hGRElOPr_GHi1aqOCzCx-100" value="&lt;font style=&quot;font-size: 14px;&quot;&gt;Tags&lt;/font&gt;" style="text;html=1;align=center;verticalAlign=middle;resizable=0;points=[];autosize=1;strokeColor=none;fillColor=none;" vertex="1" parent="1">
          <mxGeometry x="1005" y="575" width="50" height="30" as="geometry" />
        </mxCell>
        <mxCell id="hGRElOPr_GHi1aqOCzCx-102" value="" style="html=1;points=[];perimeter=orthogonalPerimeter;fillColor=strokeColor;direction=south;" vertex="1" parent="1">
          <mxGeometry x="320" y="710" width="620" height="7.5" as="geometry" />
        </mxCell>
        <mxCell id="hGRElOPr_GHi1aqOCzCx-103" value="" style="endArrow=classic;html=1;rounded=0;exitX=0;exitY=0.933;exitDx=0;exitDy=0;exitPerimeter=0;" edge="1" parent="1">
          <mxGeometry width="50" height="50" relative="1" as="geometry">
            <mxPoint x="390" y="620" as="sourcePoint" />
            <mxPoint x="390.83" y="712" as="targetPoint" />
          </mxGeometry>
        </mxCell>
        <mxCell id="hGRElOPr_GHi1aqOCzCx-104" value="" style="endArrow=classic;html=1;rounded=0;entryX=0.5;entryY=0;entryDx=0;entryDy=0;exitX=1;exitY=0.493;exitDx=0;exitDy=0;exitPerimeter=0;" edge="1" parent="1">
          <mxGeometry width="50" height="50" relative="1" as="geometry">
            <mxPoint x="715.83" y="620.5" as="sourcePoint" />
            <mxPoint x="715.8300000000003" y="712.5" as="targetPoint" />
          </mxGeometry>
        </mxCell>
        <mxCell id="hGRElOPr_GHi1aqOCzCx-105" value="" style="endArrow=classic;html=1;rounded=0;exitX=0;exitY=0.933;exitDx=0;exitDy=0;exitPerimeter=0;entryX=0.5;entryY=0;entryDx=0;entryDy=0;" edge="1" parent="1">
          <mxGeometry width="50" height="50" relative="1" as="geometry">
            <mxPoint x="555.24" y="620" as="sourcePoint" />
            <mxPoint x="555.8300000000003" y="712.5" as="targetPoint" />
          </mxGeometry>
        </mxCell>
        <mxCell id="hGRElOPr_GHi1aqOCzCx-106" value="" style="endArrow=classic;html=1;rounded=0;entryX=0.5;entryY=0;entryDx=0;entryDy=0;exitX=1;exitY=0.493;exitDx=0;exitDy=0;exitPerimeter=0;" edge="1" parent="1">
          <mxGeometry width="50" height="50" relative="1" as="geometry">
            <mxPoint x="869.2900000000001" y="618" as="sourcePoint" />
            <mxPoint x="869.2900000000003" y="710" as="targetPoint" />
          </mxGeometry>
        </mxCell>
        <mxCell id="hGRElOPr_GHi1aqOCzCx-107" value="" style="rhombus;whiteSpace=wrap;html=1;" vertex="1" parent="1">
          <mxGeometry x="560" y="780" width="80" height="80" as="geometry" />
        </mxCell>
        <mxCell id="hGRElOPr_GHi1aqOCzCx-108" value="&lt;font style=&quot;font-size: 14px;&quot;&gt;If user&lt;br&gt;exist&lt;/font&gt;" style="text;html=1;align=center;verticalAlign=middle;resizable=0;points=[];autosize=1;strokeColor=none;fillColor=none;" vertex="1" parent="1">
          <mxGeometry x="570" y="795" width="60" height="50" as="geometry" />
        </mxCell>
        <mxCell id="hGRElOPr_GHi1aqOCzCx-109" value="" style="endArrow=classic;html=1;rounded=0;exitX=1.143;exitY=0.552;exitDx=0;exitDy=0;exitPerimeter=0;entryX=0.5;entryY=0;entryDx=0;entryDy=0;" edge="1" parent="1" source="hGRElOPr_GHi1aqOCzCx-102" target="hGRElOPr_GHi1aqOCzCx-107">
          <mxGeometry width="50" height="50" relative="1" as="geometry">
            <mxPoint x="640" y="810" as="sourcePoint" />
            <mxPoint x="690" y="760" as="targetPoint" />
          </mxGeometry>
        </mxCell>
        <mxCell id="hGRElOPr_GHi1aqOCzCx-110" value="" style="endArrow=classic;html=1;rounded=0;exitX=0;exitY=0.5;exitDx=0;exitDy=0;entryX=0.986;entryY=0.411;entryDx=0;entryDy=0;entryPerimeter=0;" edge="1" parent="1" source="hGRElOPr_GHi1aqOCzCx-107" target="hGRElOPr_GHi1aqOCzCx-114">
          <mxGeometry width="50" height="50" relative="1" as="geometry">
            <mxPoint x="630" y="470" as="sourcePoint" />
            <mxPoint x="410" y="820" as="targetPoint" />
          </mxGeometry>
        </mxCell>
        <mxCell id="hGRElOPr_GHi1aqOCzCx-111" value="" style="endArrow=classic;html=1;rounded=0;exitX=0.5;exitY=1;exitDx=0;exitDy=0;entryX=0.5;entryY=0;entryDx=0;entryDy=0;" edge="1" parent="1" source="hGRElOPr_GHi1aqOCzCx-107" target="hGRElOPr_GHi1aqOCzCx-121">
          <mxGeometry width="50" height="50" relative="1" as="geometry">
            <mxPoint x="660" y="820" as="sourcePoint" />
            <mxPoint x="600" y="950" as="targetPoint" />
          </mxGeometry>
        </mxCell>
        <mxCell id="hGRElOPr_GHi1aqOCzCx-112" value="&lt;font style=&quot;font-size: 14px;&quot;&gt;YES&lt;/font&gt;" style="text;html=1;align=center;verticalAlign=middle;resizable=0;points=[];autosize=1;strokeColor=none;fillColor=none;" vertex="1" parent="1">
          <mxGeometry x="500" y="795" width="50" height="30" as="geometry" />
        </mxCell>
        <mxCell id="hGRElOPr_GHi1aqOCzCx-113" value="&lt;span style=&quot;font-size: 14px;&quot;&gt;NO&lt;/span&gt;" style="text;html=1;align=center;verticalAlign=middle;resizable=0;points=[];autosize=1;strokeColor=none;fillColor=none;rotation=90;" vertex="1" parent="1">
          <mxGeometry x="590" y="860" width="40" height="30" as="geometry" />
        </mxCell>
        <mxCell id="hGRElOPr_GHi1aqOCzCx-114" value="" style="rounded=0;whiteSpace=wrap;html=1;" vertex="1" parent="1">
          <mxGeometry x="290" y="795" width="120" height="60" as="geometry" />
        </mxCell>
        <mxCell id="hGRElOPr_GHi1aqOCzCx-115" value="Login Page" style="text;html=1;align=center;verticalAlign=middle;resizable=0;points=[];autosize=1;strokeColor=none;fillColor=none;" vertex="1" parent="1">
          <mxGeometry x="305" y="805" width="80" height="30" as="geometry" />
        </mxCell>
        <mxCell id="hGRElOPr_GHi1aqOCzCx-117" value="User Created" style="text;html=1;align=center;verticalAlign=middle;resizable=0;points=[];autosize=1;strokeColor=none;fillColor=none;" vertex="1" parent="1">
          <mxGeometry x="555" y="980" width="90" height="30" as="geometry" />
        </mxCell>
        <mxCell id="hGRElOPr_GHi1aqOCzCx-118" value="" style="endArrow=classic;html=1;rounded=0;exitX=0.5;exitY=1;exitDx=0;exitDy=0;" edge="1" parent="1">
          <mxGeometry width="50" height="50" relative="1" as="geometry">
            <mxPoint x="600" y="1030" as="sourcePoint" />
            <mxPoint x="600" y="1100" as="targetPoint" />
          </mxGeometry>
        </mxCell>
        <mxCell id="hGRElOPr_GHi1aqOCzCx-119" value="" style="ellipse;html=1;shape=endState;fillColor=strokeColor;" vertex="1" parent="1">
          <mxGeometry x="585" y="1100" width="30" height="30" as="geometry" />
        </mxCell>
        <mxCell id="hGRElOPr_GHi1aqOCzCx-120" value="" style="endArrow=classic;html=1;rounded=0;exitX=0.5;exitY=1;exitDx=0;exitDy=0;entryX=1;entryY=0.5;entryDx=0;entryDy=0;" edge="1" parent="1" source="hGRElOPr_GHi1aqOCzCx-95" target="hGRElOPr_GHi1aqOCzCx-121">
          <mxGeometry width="50" height="50" relative="1" as="geometry">
            <mxPoint x="690" y="810" as="sourcePoint" />
            <mxPoint x="630" y="920" as="targetPoint" />
            <Array as="points">
              <mxPoint x="1030" y="920" />
            </Array>
          </mxGeometry>
        </mxCell>
        <mxCell id="hGRElOPr_GHi1aqOCzCx-122" value="" style="edgeStyle=orthogonalEdgeStyle;rounded=0;orthogonalLoop=1;jettySize=auto;html=1;entryX=0.5;entryY=0;entryDx=0;entryDy=0;" edge="1" parent="1" source="hGRElOPr_GHi1aqOCzCx-121" target="06AF0Y3Tv4udJ_ulRc9i-11">
          <mxGeometry relative="1" as="geometry">
            <mxPoint x="600" y="950" as="targetPoint" />
          </mxGeometry>
        </mxCell>
        <mxCell id="hGRElOPr_GHi1aqOCzCx-121" value="" style="rhombus;whiteSpace=wrap;html=1;" vertex="1" parent="1">
          <mxGeometry x="590" y="910" width="20" height="20" as="geometry" />
        </mxCell>
        <mxCell id="hGRElOPr_GHi1aqOCzCx-123" value="" style="shape=sumEllipse;perimeter=ellipsePerimeter;html=1;backgroundOutline=1;" vertex="1" parent="1">
          <mxGeometry x="215" y="805" width="30" height="30" as="geometry" />
        </mxCell>
        <mxCell id="hGRElOPr_GHi1aqOCzCx-124" value="" style="endArrow=classic;html=1;rounded=0;exitX=0;exitY=0.5;exitDx=0;exitDy=0;entryX=0.916;entryY=0.649;entryDx=0;entryDy=0;entryPerimeter=0;" edge="1" parent="1" source="hGRElOPr_GHi1aqOCzCx-114" target="hGRElOPr_GHi1aqOCzCx-123">
          <mxGeometry width="50" height="50" relative="1" as="geometry">
            <mxPoint x="570" y="830" as="sourcePoint" />
            <mxPoint x="418" y="830" as="targetPoint" />
          </mxGeometry>
        </mxCell>
        <mxCell id="06AF0Y3Tv4udJ_ulRc9i-1" value="" style="rounded=1;whiteSpace=wrap;html=1;" vertex="1" parent="1">
          <mxGeometry x="170" y="135" width="120" height="60" as="geometry" />
        </mxCell>
        <mxCell id="06AF0Y3Tv4udJ_ulRc9i-3" value="&#xa;&lt;span style=&quot;color: rgb(0, 0, 0); font-family: Helvetica; font-size: 14px; font-style: normal; font-variant-ligatures: normal; font-variant-caps: normal; font-weight: 400; letter-spacing: normal; orphans: 2; text-align: center; text-indent: 0px; text-transform: none; widows: 2; word-spacing: 0px; -webkit-text-stroke-width: 0px; background-color: rgb(251, 251, 251); text-decoration-thickness: initial; text-decoration-style: initial; text-decoration-color: initial; float: none; display: inline !important;&quot;&gt;User&amp;nbsp;&lt;/span&gt;&lt;br style=&quot;border-color: var(--border-color); color: rgb(0, 0, 0); font-family: Helvetica; font-size: 14px; font-style: normal; font-variant-ligatures: normal; font-variant-caps: normal; font-weight: 400; letter-spacing: normal; orphans: 2; text-align: center; text-indent: 0px; text-transform: none; widows: 2; word-spacing: 0px; -webkit-text-stroke-width: 0px; background-color: rgb(251, 251, 251); text-decoration-thickness: initial; text-decoration-style: initial; text-decoration-color: initial;&quot;&gt;&lt;span style=&quot;color: rgb(0, 0, 0); font-family: Helvetica; font-size: 14px; font-style: normal; font-variant-ligatures: normal; font-variant-caps: normal; font-weight: 400; letter-spacing: normal; orphans: 2; text-align: center; text-indent: 0px; text-transform: none; widows: 2; word-spacing: 0px; -webkit-text-stroke-width: 0px; background-color: rgb(251, 251, 251); text-decoration-thickness: initial; text-decoration-style: initial; text-decoration-color: initial; float: none; display: inline !important;&quot;&gt;Registration&lt;/span&gt;&#xa;&#xa;" style="text;html=1;strokeColor=none;fillColor=none;align=center;verticalAlign=middle;whiteSpace=wrap;rounded=0;" vertex="1" parent="1">
          <mxGeometry x="200" y="150" width="60" height="30" as="geometry" />
        </mxCell>
      </root>
    </mxGraphModel>
  </diagram>
</mxfile>
